# xmcd CD database file generated by Grip 3.3.1
# 
# Track frame offsets:
#       150
#       17715
#       37322
#       52788
#       66338
#       84613
#       110620
#       124547
#       147490
#       164448
#       179252
#       191596
#       213594
# 
# Disc length: 3188 seconds
# 
# Revision: 1
# Processed by: cddbd v1.5.2PL0 Copyright (c) Steve Scherf et al.
# Submitted via: Grip 3.3.1
# 
DISCID=bf0c720d
DTITLE=In Flames - Whoracle (Reloaded)
DYEAR=1997
DGENRE=Metal
TTITLE0=Jotun
TTITLE1=Food for the Gods
TTITLE2=Gyroscope
TTITLE3=Dialogue with the Stars
TTITLE4=The Hive
TTITLE5=Jester Script Transfigured
TTITLE6=Morphing Into Primal
TTITLE7=Worlds Within the Margin
TTITLE8=Episode 666
TTITLE9=Everything Counts
TTITLE10=Whoracle
TTITLE11=Clad in Shadows '99
TTITLE12=DATA
EXTD=
EXTT0=
EXTT1=
EXTT2=
EXTT3=
EXTT4=
EXTT5=
EXTT6=
EXTT7=
EXTT8=
EXTT9=
EXTT10=
EXTT11=
EXTT12=
PLAYORDER=
